<svg width="10" height="16" viewBox="0 0 10 16" fill="none" xmlns="http://www.w3.org/2000/svg">
<path d="M9.59855 8.00445C9.59855 8.16105 9.57138 8.30557 9.51722 8.43812C9.457 8.57058 9.36668 8.69707 9.24616 8.81759L2.20835 15.7018C2.00357 15.9005 1.75663 15.9999 1.46752 15.9999C1.26877 15.9999 1.09109 15.9517 0.934492 15.8554C0.771871 15.765 0.642379 15.6416 0.546011 15.485C0.449644 15.3284 0.40146 15.1507 0.40146 14.9519C0.40146 14.6688 0.512885 14.4159 0.735732 14.1931L7.07791 8.00445L0.735732 1.81586C0.512883 1.59301 0.401459 1.33704 0.401459 1.04794C0.401459 0.8552 0.449643 0.680536 0.54601 0.523937C0.642379 0.361317 0.771871 0.234835 0.934492 0.14449C1.09109 0.0481229 1.26877 -6.10352e-05 1.46752 -6.10352e-05C1.75663 -6.10352e-05 2.00357 0.102329 2.20835 0.307111L9.24616 7.19135C9.36668 7.31181 9.457 7.43829 9.51722 7.5708C9.57138 7.70331 9.59855 7.84786 9.59855 8.00445Z" fill="white"/>
</svg>
