<svg width="10" height="17" viewBox="0 0 10 17" fill="none" xmlns="http://www.w3.org/2000/svg">
<path d="M9.19709 8.10449C9.19709 8.26109 9.16992 8.40561 9.11576 8.53816C9.05555 8.67062 8.96522 8.79711 8.8447 8.91763L1.80689 15.8018C1.60211 16.0006 1.35517 16.1 1.06607 16.1C0.867306 16.1 0.689632 16.0518 0.533033 15.9554C0.370412 15.8651 0.24092 15.7416 0.144553 15.585C0.0481848 15.4284 1.65426e-06 15.2507 1.65426e-06 15.052C1.65426e-06 14.7689 0.111426 14.5159 0.334274 14.2931L6.67646 8.10449L0.334274 1.9159C0.111425 1.69305 0 1.43708 0 1.14797C0 0.955237 0.048184 0.780573 0.144551 0.623973C0.24092 0.461354 0.370412 0.334871 0.533033 0.244527C0.689632 0.14816 0.867306 0.0999756 1.06607 0.0999756C1.35517 0.0999756 1.60211 0.202366 1.80689 0.407147L8.8447 7.29139C8.96522 7.41185 9.05555 7.53833 9.11576 7.67083C9.16992 7.80334 9.19709 7.94789 9.19709 8.10449Z" fill="#04489D"/>
</svg>
