<svg width="11" height="17" viewBox="0 0 11 17" fill="none" xmlns="http://www.w3.org/2000/svg">
<path d="M10.0985 8.50452C10.0985 8.66111 10.0714 8.80564 10.0172 8.93818C9.957 9.07064 9.86668 9.19713 9.74616 9.31765L2.70835 16.2019C2.50357 16.4006 2.25663 16.5 1.96752 16.5C1.76877 16.5 1.59109 16.4518 1.43449 16.3554C1.27187 16.2651 1.14238 16.1416 1.04601 15.985C0.949644 15.8284 0.90146 15.6507 0.90146 15.452C0.90146 15.1689 1.01289 14.9159 1.23573 14.6931L7.57791 8.50452L1.23573 2.31592C1.01288 2.09308 0.901459 1.8371 0.901459 1.548C0.901459 1.35526 0.949643 1.1806 1.04601 1.024C1.14238 0.861378 1.27187 0.734896 1.43449 0.644551C1.59109 0.548184 1.76877 0.5 1.96752 0.5C2.25663 0.5 2.50357 0.602391 2.70835 0.807172L9.74616 7.69141C9.86668 7.81187 9.957 7.93835 10.0172 8.07086C10.0714 8.20337 10.0985 8.34792 10.0985 8.50452Z" fill="white"/>
</svg>
