<svg width="16" height="11" viewBox="0 0 16 11" fill="none" xmlns="http://www.w3.org/2000/svg">
<path d="M7.99548 10.0985C7.83889 10.0985 7.69436 10.0714 7.56182 10.0172C7.42936 9.957 7.30287 9.86668 7.18235 9.74616L0.298143 2.70835C0.099409 2.50357 -5.92363e-08 2.25663 -4.65992e-08 1.96752C-3.79112e-08 1.76876 0.048191 1.59109 0.144572 1.43449C0.234899 1.27187 0.35836 1.14238 0.514958 1.04601C0.671557 0.949643 0.849266 0.90146 1.048 0.90146C1.33109 0.90146 1.58407 1.01288 1.80686 1.23573L7.99548 7.57791L14.1841 1.23573C14.4069 1.01288 14.6629 0.901459 14.952 0.901459C15.1447 0.901459 15.3194 0.949643 15.476 1.04601C15.6386 1.14238 15.7651 1.27187 15.8554 1.43449C15.9518 1.59109 16 1.76877 16 1.96752C16 2.25663 15.8976 2.50357 15.6928 2.70835L8.80859 9.74616C8.68813 9.86668 8.56165 9.957 8.42914 10.0172C8.29663 10.0714 8.15208 10.0985 7.99548 10.0985Z" fill="#666666"/>
</svg>
